<svg width="34" height="34" viewBox="0 0 34 34" fill="none" xmlns="http://www.w3.org/2000/svg">
<g clip-path="url(#clip0_44_2)">
<path d="M23.5543 23.5532L15.5498 23.5532C13.9674 23.5537 12.4203 23.0849 11.1043 22.2061C9.7883 21.3272 8.76251 20.0778 8.15669 18.6159C7.55086 17.154 7.39221 15.5452 7.70081 13.9931C8.00941 12.4411 8.77139 11.0153 9.89037 9.89637C11.0093 8.77739 12.435 8.01541 13.9871 7.70681C15.5392 7.39822 17.148 7.55686 18.6099 8.16269C20.0718 8.76852 21.3212 9.7943 22.2001 11.1103C23.0789 12.4263 23.5477 13.9734 23.5472 15.5558L23.5543 23.5532Z" fill="#18181B" stroke="#18181B" stroke-width="2" stroke-linecap="round" stroke-linejoin="round"/>
</g>
<defs>
<clipPath id="clip0_44_2">
<rect width="24" height="24" fill="white" transform="translate(33.941 17.0146) rotate(135.148)"/>
</clipPath>
</defs>
</svg>
