<svg width="32" height="32" viewBox="0 0 32 32" fill="none" xmlns="http://www.w3.org/2000/svg">
<circle cx="16" cy="16" r="16" fill="white"/>
<path d="M16.498 21.3333C16.1998 21.3333 15.8963 21.2837 15.5875 21.1844C15.2893 21.095 14.9752 20.946 14.645 20.7374C14.3149 20.5289 13.9528 20.2557 13.5588 19.9181L9.80502 16.6108V21.1844H8V10.756H9.80502V14.5251L14.054 18.1899C14.3841 18.478 14.6717 18.7163 14.9166 18.905C15.1722 19.0838 15.3958 19.2228 15.5875 19.3222C15.7898 19.4215 15.9708 19.496 16.1306 19.5456C16.2903 19.5853 16.4554 19.6052 16.6258 19.6052C16.6471 19.6052 16.679 19.6052 16.7216 19.6052C16.7642 19.6052 16.8068 19.6002 16.8494 19.5903V21.3035C16.7749 21.3135 16.711 21.3184 16.6577 21.3184C16.6045 21.3284 16.5512 21.3333 16.498 21.3333ZM11.658 16.7449L10.5079 15.7765C10.806 15.5878 11.1255 15.3644 11.4663 15.1061C11.8071 14.838 12.1478 14.55 12.4886 14.2421C12.84 13.9243 13.1808 13.5816 13.5109 13.2142C13.8517 12.8467 14.1712 12.4494 14.4693 12.0223C14.7675 11.5953 15.0284 11.1434 15.252 10.6667L16.6258 11.3222C16.3702 11.928 16.056 12.4991 15.6833 13.0354C15.3213 13.5618 14.9166 14.0534 14.4693 14.5102C14.0327 14.9572 13.5748 15.3693 13.0956 15.7467C12.6164 16.1241 12.1372 16.4569 11.658 16.7449ZM17.323 20.8715L17.6744 19.5754C17.9619 19.6449 18.2441 19.7095 18.521 19.7691C18.7979 19.8187 19.0641 19.8585 19.3197 19.8883C19.5859 19.9081 19.8255 19.9181 20.0385 19.9181C20.5177 19.9181 20.9171 19.8535 21.2366 19.7244C21.5667 19.5853 21.8116 19.3569 21.9713 19.0391C22.1311 18.7213 22.211 18.3042 22.211 17.7877V12.216H18.0418V10.756H24V18.1304C24 18.8355 23.8775 19.4264 23.6326 19.9032C23.3877 20.3799 23.0096 20.7374 22.4985 20.9758C21.9873 21.2142 21.3271 21.3333 20.5177 21.3333C20.1876 21.3333 19.8362 21.3135 19.4635 21.2737C19.1014 21.2439 18.7393 21.1943 18.3773 21.1248C18.0152 21.0552 17.6638 20.9708 17.323 20.8715Z" fill="black"/>
</svg>
