<svg width="24" height="17" viewBox="0 0 24 17" fill="none" xmlns="http://www.w3.org/2000/svg">
<path d="M12.747 17C12.2997 17 11.8445 16.9209 11.3812 16.7626C10.934 16.6201 10.4627 16.3827 9.96755 16.0503C9.47237 15.7179 8.92927 15.2826 8.33824 14.7444L2.70753 9.47346V16.7626H0V0.142456H2.70753V6.14944L9.08102 11.9902C9.5762 12.4493 10.0075 12.8291 10.3749 13.1299C10.7582 13.4148 11.0937 13.6364 11.3812 13.7947C11.6847 13.953 11.9563 14.0717 12.1959 14.1508C12.4355 14.2142 12.6831 14.2458 12.9387 14.2458C12.9706 14.2458 13.0185 14.2458 13.0824 14.2458C13.1463 14.2458 13.2102 14.2379 13.2741 14.2221V16.9525C13.1623 16.9683 13.0664 16.9763 12.9866 16.9763C12.9067 16.9921 12.8268 17 12.747 17ZM5.48695 9.68715L3.76179 8.14386C4.20906 7.84311 4.68826 7.48697 5.19942 7.07542C5.71058 6.64805 6.22173 6.18901 6.73289 5.69832C7.26002 5.19181 7.77118 4.64572 8.26636 4.06006C8.77752 3.47439 9.25673 2.84125 9.70399 2.16061C10.1513 1.47998 10.5426 0.759775 10.8781 0L12.9387 1.04469C12.5553 2.01024 12.0841 2.92039 11.525 3.77514C10.9819 4.61406 10.3749 5.39758 9.70399 6.1257C9.04907 6.83799 8.3622 7.49488 7.64339 8.09637C6.92457 8.69786 6.20576 9.22812 5.48695 9.68715ZM13.9845 16.264L14.5116 14.1983C14.9429 14.3091 15.3662 14.412 15.7815 14.507C16.1968 14.5861 16.5962 14.6494 16.9795 14.6969C17.3789 14.7286 17.7383 14.7444 18.0578 14.7444C18.7766 14.7444 19.3756 14.6415 19.8548 14.4358C20.35 14.2142 20.7174 13.8501 20.957 13.3436C21.1966 12.8371 21.3164 12.1723 21.3164 11.3492V2.46927H15.0627V0.142456H24V11.8953C24 13.0191 23.8163 13.9609 23.4489 14.7207C23.0815 15.4804 22.5145 16.0503 21.7477 16.4302C20.981 16.8101 19.9906 17 18.7766 17C18.2814 17 17.7543 16.9683 17.1952 16.905C16.6521 16.8575 16.109 16.7784 15.5659 16.6676C15.0228 16.5568 14.4956 16.4223 13.9845 16.264Z" fill="black"/>
</svg>
